<svg xmlns="http://www.w3.org/2000/svg" xmlns:xlink="http://www.w3.org/1999/xlink" viewBox="0 0 32 32" fill="#FF3547">
  <path d="M5 6C3.346 6 2 7.346 2 9L2 23C2 24.654 3.346 26 5 26L22 26L23.298828 26C22.573828 25.489 21.986937 24.802 21.585938 24L5 24C4.449 24 4 23.551 4 23L4 9C4 8.449 4.449 8 5 8L27 8C27.551 8 28 8.449 28 9L28 14L30 14L30 9C30 7.346 28.654 6 27 6L5 6 z M 6 12L6 16L11 16L11 12L6 12 z M 16 12L16 14L25 14L25 12L16 12 z M 26 16L26 18C24.3 18.3 23 19.7 23 21.5C23 23.5 24.5 25 26.5 25L27.5 25C28.3 25 29 25.7 29 26.5C29 27.3 28.3 28 27.5 28L24 28L24 30L26 30L26 32L28 32L28 30C29.7 29.7 31 28.3 31 26.5C31 24.5 29.5 23 27.5 23L26.5 23C25.7 23 25 22.3 25 21.5C25 20.7 25.7 20 26.5 20L30 20L30 18L28 18L28 16L26 16 z M 6 19L6 21L10 21L10 19L6 19 z M 11 19L11 21L15 21L15 19L11 19 z M 16 19L16 21L20 21L20 19L16 19 z" fill="#FF3547" />
</svg>