<svg xmlns="http://www.w3.org/2000/svg" xmlns:xlink="http://www.w3.org/1999/xlink" viewBox="0 0 32 32" fill="#FF3547">
  <path d="M16 3C8.261719 3 2 9.261719 2 17L2 27L10.4375 27C11.957031 28.246094 13.882813 29 16 29C18.117188 29 20.042969 28.246094 21.5625 27L30 27L30 17C30 9.261719 23.738281 3 16 3 Z M 16 5C22.664063 5 28 10.335938 28 17L28 25L23.375 25C24.210938 23.738281 24.753906 22.246094 24.875 20.65625C26.054688 20.25 27 19.308594 27 18C27 16.355469 25.644531 15 24 15L23 15L23 17L24 17C24.554688 17 25 17.445313 25 18C25 18.554688 24.554688 19 24 19L23 19L23 20C23 23.855469 19.855469 27 16 27C12.144531 27 9 23.855469 9 20L9 19L8 19C7.445313 19 7 18.554688 7 18C7 17.445313 7.445313 17 8 17L9 17L9 15C9 14.558594 9.105469 14.40625 9.21875 14.28125C9.332031 14.15625 9.539063 14.027344 9.9375 13.9375C10.734375 13.757813 12.089844 13.800781 13.5 13.8125C14.910156 13.824219 16.398438 13.808594 17.71875 13.15625C19.039063 12.503906 20 11.054688 20 9L18 9C18 10.546875 17.585938 11.007813 16.84375 11.375C16.101563 11.742188 14.839844 11.824219 13.5 11.8125C12.160156 11.800781 10.765625 11.710938 9.5 12C8.867188 12.144531 8.238281 12.382813 7.75 12.90625C7.261719 13.429688 7 14.191406 7 15L7 15.40625C5.890625 15.847656 5 16.742188 5 18C5 19.308594 5.945313 20.25 7.125 20.65625C7.246094 22.246094 7.789063 23.738281 8.625 25L4 25L4 17C4 10.335938 9.335938 5 16 5 Z M 13 17C12.449219 17 12 17.449219 12 18C12 18.550781 12.449219 19 13 19C13.550781 19 14 18.550781 14 18C14 17.449219 13.550781 17 13 17 Z M 19 17C18.449219 17 18 17.449219 18 18C18 18.550781 18.449219 19 19 19C19.550781 19 20 18.550781 20 18C20 17.449219 19.550781 17 19 17Z" fill="#FF3547" />
</svg>