<svg xmlns="http://www.w3.org/2000/svg" xmlns:xlink="http://www.w3.org/1999/xlink" viewBox="0 0 32 32" fill="#FF3547">
  <path d="M4 4L4 26L12.230469 26C12.246094 25.9375 12.265625 25.882813 12.28125 25.824219C12.300781 25.757813 12.304688 25.699219 12.324219 25.636719C12.339844 25.570313 12.359375 25.5 12.375 25.4375C12.40625 25.332031 12.457031 25.230469 12.488281 25.125C12.527344 25.019531 12.566406 24.917969 12.605469 24.8125C12.660156 24.671875 12.699219 24.527344 12.761719 24.390625C12.785156 24.335938 12.808594 24.285156 12.839844 24.230469C12.867188 24.160156 12.917969 24.085938 12.949219 24.019531C12.953125 24.011719 12.953125 24.007813 12.957031 24L6 24L6 6L21 6L21 11C21.695313 11 22.367188 11.105469 23 11.296875L23 4 Z M 8 8L8 10L12 10L12 8 Z M 15 8L15 10L19 10L19 8 Z M 8 12L8 14L12 14L12 12 Z M 15 12L15 14L15.265625 14C15.828125 13.191406 16.5625 12.511719 17.410156 12 Z M 21 13C18.25 13 16 15.25 16 18C16 19.519531 16.703125 20.871094 17.78125 21.792969C15.539063 22.960938 14 25.304688 14 28L16 28C16 25.226563 18.226563 23 21 23C23.773438 23 26 25.226563 26 28L28 28C28 25.304688 26.460938 22.960938 24.21875 21.792969C25.296875 20.871094 26 19.519531 26 18C26 15.25 23.75 13 21 13 Z M 21 15C22.667969 15 24 16.332031 24 18C24 19.667969 22.667969 21 21 21C19.332031 21 18 19.667969 18 18C18 16.332031 19.332031 15 21 15 Z M 8 16L8 18L12 18L12 16 Z M 8 20L8 22L12 22L12 20Z" fill="#FF3547" />
</svg>