<svg xmlns="http://www.w3.org/2000/svg" xmlns:xlink="http://www.w3.org/1999/xlink" viewBox="0 0 32 32" fill="#FF3547">
  <path d="M14 4C12.742188 4 11.847656 4.890625 11.40625 6L11 6C8.25 6 6 8.25 6 11L6 21C6 23.230469 7.246094 25.183594 9.0625 26.21875L7 29L9.34375 29L10.90625 26.90625C11.257813 26.96875 11.632813 27 12 27L20 27C20.367188 27 20.742188 26.96875 21.09375 26.90625L22.65625 29L25 29L22.9375 26.21875C24.753906 25.183594 26 23.230469 26 21L26 11C26 8.25 23.75 6 21 6L20.59375 6C20.152344 4.890625 19.257813 4 18 4 Z M 14 6L18 6C18.566406 6 19 6.433594 19 7L19 8L21 8C22.320313 8 23.4375 8.828125 23.84375 10L8.15625 10C8.5625 8.828125 9.679688 8 11 8L13 8L13 7C13 6.433594 13.433594 6 14 6 Z M 8 12L24 12L24 17L8 17 Z M 8 19L24 19L24 21C24 23.21875 22.21875 25 20 25L12 25C9.78125 25 8 23.21875 8 21 Z M 11.5 20C10.671875 20 10 20.671875 10 21.5C10 22.328125 10.671875 23 11.5 23C12.328125 23 13 22.328125 13 21.5C13 20.671875 12.328125 20 11.5 20 Z M 20.5 20C19.671875 20 19 20.671875 19 21.5C19 22.328125 19.671875 23 20.5 23C21.328125 23 22 22.328125 22 21.5C22 20.671875 21.328125 20 20.5 20Z" fill="#FF3547" />
</svg>