<svg xmlns="http://www.w3.org/2000/svg" xmlns:xlink="http://www.w3.org/1999/xlink" viewBox="0 0 32 32" fill="#FF3547">
  <path d="M10 4C7.25 4 5 6.25 5 9L5 21C5 23.425781 6.449219 25.523438 8.53125 26.46875L6 29L8.34375 29L10.375 26.96875C10.574219 26.988281 10.792969 27 11 27L21 27C21.207031 27 21.425781 26.988281 21.625 26.96875L23.65625 29L26 29L23.46875 26.46875C25.550781 25.523438 27 23.425781 27 21L27 9C27 6.25 24.75 4 22 4 Z M 10 6L22 6C23.320313 6 24.4375 6.828125 24.84375 8L7.15625 8C7.5625 6.828125 8.679688 6 10 6 Z M 7 10L15 10L15 16L7 16 Z M 17 10L25 10L25 16L17 16 Z M 7 18L25 18L25 21C25 23.21875 23.21875 25 21 25L11 25C8.78125 25 7 23.21875 7 21 Z M 10.5 20C9.671875 20 9 20.671875 9 21.5C9 22.328125 9.671875 23 10.5 23C11.328125 23 12 22.328125 12 21.5C12 20.671875 11.328125 20 10.5 20 Z M 21.5 20C20.671875 20 20 20.671875 20 21.5C20 22.328125 20.671875 23 21.5 23C22.328125 23 23 22.328125 23 21.5C23 20.671875 22.328125 20 21.5 20Z" fill="#FF3547" />
</svg>