<svg xmlns="http://www.w3.org/2000/svg" xmlns:xlink="http://www.w3.org/1999/xlink" viewBox="0 0 32 32" fill="#FF3547">
  <path d="M14 3C12.742188 3 11.847656 3.890625 11.40625 5L10 5C7.25 5 5 7.25 5 10L5 21C5 23.425781 6.449219 25.523438 8.53125 26.46875L6 29L8.34375 29L10.375 26.96875C10.574219 26.988281 10.792969 27 11 27L21 27C21.207031 27 21.425781 26.988281 21.625 26.96875L23.65625 29L26 29L23.46875 26.46875C25.550781 25.523438 27 23.425781 27 21L27 10C27 7.25 24.75 5 22 5L20.59375 5C20.152344 3.890625 19.257813 3 18 3 Z M 14 5L18 5C18.566406 5 19 5.433594 19 6L19 7L22 7C23.320313 7 24.4375 7.828125 24.84375 9L7.15625 9C7.5625 7.828125 8.679688 7 10 7L13 7L13 6C13 5.433594 13.433594 5 14 5 Z M 7 11L25 11L25 16L7 16 Z M 7 18L25 18L25 21C25 23.21875 23.21875 25 21 25L11 25C8.78125 25 7 23.21875 7 21 Z M 16 19C14.894531 19 14 19.894531 14 21C14 22.105469 14.894531 23 16 23C17.105469 23 18 22.105469 18 21C18 19.894531 17.105469 19 16 19Z" fill="#FF3547" />
</svg>